<svg xmlns="http://www.w3.org/2000/svg" viewBox="0 0 855.9 211.5"><path d="M88.2 8c-1.1-1.8-3.1-3-5.3-3H3.2C.8 4.9-.8 7.6.5 9.7l19 31.4c.6 1.1 1.8 1.7 3 1.8l86.9.1-26.2 50.1h-.1l-39.9 76.7c-.7 1.2-.7 2.7 0 3.9l19.2 31.8c1.2 2 4.1 1.9 5.2 0l25.8-49.6c.1-.2.3-.3.4-.5l37-71.1c1-1.9.9-4.2-.2-6L88.2 8z"/><path d="M236.3 4.9c67.8 0 104.1 49.3 104.1 99.2 0 49.6-35.6 103.5-108.8 103.5h-3.9c-1.2 0-2.4-.6-3-1.7l-60.4-100c-.6-.9-.9-2-.9-3.1V8.4c0-1.9 1.6-3.5 3.5-3.5h69.4zm-31.6 167.9H235c42.5 0 63.8-30.8 63.8-66.6 0-35.4-20.9-66.6-62.5-66.6h-28.1c-1.9 0-3.5 1.6-3.5 3.5v129.7zM387.6 30.2C408 10.1 433.2 0 463.2 0c4.2 0 8.4.2 12.4.6 24.6 2.4 45.7 12.3 63.2 29.6 20.3 20.2 30.5 45.4 30.5 75.7 0 30.1-10.2 55.2-30.5 75.4-20.3 20.2-45.5 30.2-75.6 30.2-30 0-55.2-10.1-75.6-30.2-20.3-20.2-30.5-45.3-30.5-75.4 0-30.3 10.2-55.5 30.5-75.7zm121.6 26.4c-12.3-12.6-27.7-18.9-46-18.9-18.4 0-33.7 6.3-46 18.9-12.3 12.6-18.5 29-18.5 49.3 0 20.1 6.2 36.4 18.6 49 12.4 12.6 27.7 18.9 45.9 18.9s33.4-6.3 45.9-18.9c12.4-12.6 18.6-28.9 18.6-49 0-20.3-6.2-36.7-18.5-49.3zM700.4 4.9h-148c-1.7 0-2.7 1.8-1.8 3.2l18.2 30.1c.5.9 1.5 1.4 2.5 1.4h129c1.4 0 2.6-1.1 2.6-2.5l.1-29.7c0-1.4-1.1-2.5-2.6-2.5zM610.8 39.6v164.3c0 1.9 1.6 3.5 3.5 3.5h34.3c1.9 0 3.5-1.6 3.5-3.5v-93.6c0-1.7-.5-3.4-1.3-4.8l-40-65.9zM855.9 148.9c0 19.4-7.2 34.7-21.6 45.7-14.4 11-31.6 16.6-51.7 16.6-13.7 0-27.2-2.8-40.5-8.3-9.5-3.9-18-9.1-25.6-15.5-1.3-1.1-1.7-3.1-.7-4.5l17.4-28.2c.7-1.1 2.2-1.3 3.1-.4 5.6 5.7 12.2 10.2 19.9 13.7 9.6 4.3 19 6.4 28.2 6.4 8.6 0 15.7-1.9 21.5-5.7 5.7-3.8 8.6-8.9 8.6-15.5 0-2.9-.7-5.5-2.1-8-1.4-2.5-3.1-4.5-4.9-6.1-1.8-1.6-4.7-3.4-8.4-5.2-3.8-1.8-7-3.2-9.5-4.1-2.6-.9-6.4-2.3-11.5-4.1-7.2-2.5-13-4.6-17.6-6.4-4.6-1.8-10.1-4.6-16.4-8.3-6.3-3.7-11.3-7.6-15-11.7-3.7-4.1-6.9-9.5-9.7-16.1-2.8-6.6-4.1-14-4.1-21.9 0-13.9 3.7-25.7 11.2-35.3 7.5-9.6 16.3-16.3 26.4-20.1C763 2.1 773.7.2 784.9.2c12.3 0 24 2.4 35.1 7.2 7.5 3.2 14.1 7.3 19.9 12.2 1.3 1.1 1.6 3 .7 4.5l-16 25.8c-.7 1.1-2.2 1.3-3.1.4-4.3-4.2-9.5-7.6-15.6-10.1-7.7-3.2-14.8-4.8-21.3-4.8-7.8 0-14.5 2.1-20.1 6.4-5.6 4.3-8.4 10.2-8.4 17.8 0 3.7.8 7 2.5 10 1.6 3 3.5 5.4 5.7 7.4 2.1 1.9 5.4 3.9 9.7 5.8 4.3 1.9 7.9 3.4 10.7 4.4 2.9 1 7.1 2.5 12.6 4.3 9.4 3.1 16.6 5.6 21.5 7.7 4.9 2 10.8 5.3 17.6 9.7 6.8 4.4 11.9 9.9 15 16.6 2.9 6.6 4.5 14.4 4.5 23.4z"/></svg>